<?xml version="1.0" encoding="utf-8"?>
<!-- Generator: Adobe Illustrator 24.3.0, SVG Export Plug-In . SVG Version: 6.00 Build 0)  -->
<svg version="1.1" id="Layer_1" xmlns="http://www.w3.org/2000/svg" xmlns:xlink="http://www.w3.org/1999/xlink" x="0px" y="0px"
	 viewBox="0 0 626.003 626.003" enable-background="new 0 0 626.003 626.003" xml:space="preserve">
<path d="M504.999,594.224H121.004c-49.277,0-89.225-39.947-89.225-89.225V121.004c0-49.277,39.947-89.225,89.225-89.225h383.996
	c49.277,0,89.225,39.947,89.225,89.225v383.996C594.224,554.277,554.277,594.224,504.999,594.224z"/>
<g>
	<path fill="#FFFFFF" d="M131.309,341.311c3.991,30.437,30.436,52.392,73.345,52.392c22.454,0,51.891-8.483,65.862-22.952
		l38.916,38.419c-25.943,26.942-68.355,39.917-105.776,39.917c-84.821,0-135.215-52.392-135.215-131.225
		c0-74.842,50.893-128.729,130.723-128.729c82.329,0,133.719,50.892,124.239,152.178H131.309z M265.027,290.918
		c-3.991-31.932-28.939-47.897-63.866-47.897c-32.93,0-59.873,15.965-68.855,47.897H265.027z"/>
	<path fill="#FFFFFF" d="M556.336,442.393c-2.715-14.922-4.033-34.145-4.033-58.769v-93.297c0-27.668-5.508-50.436-16.347-67.834
		c0.001,0,0.001,0,0.001,0c-0.418-0.701-0.873-1.389-1.313-2.08c-24.33-38.259-81.681-62.941-148.161-40.936
		c-67.683,22.402-103.537,2.821-103.537,2.821s4.091,15,48.069,15c28.21,0,43.501,0,50.848,0c4.107,0,5.742,0,5.742,0
		s67.556-6.856,91.01,34.388c1.209,2.126,2.299,4.382,3.258,6.771c0.174,0.436,0.355,0.867,0.521,1.312
		c0.762,2.04,1.416,4.181,1.979,6.414c-8.066-1.234-11.966-3.036-13.845-4.448c-0.247-0.219-0.508-0.41-0.76-0.617
		c-3.075-2.539-6.572-4.234-10.244-5.196c-7.388-1.934-15.458-0.92-22.122,2.18c-10.25,4.766-25.501-2.384-25.501-2.384
		c2.84,3.732,12.19,6.316,23.286,8.103c4.695,0.757,9.7,1.372,14.66,1.866c17.761,1.779,34.916,2.065,34.916,2.065
		s1.934,0.383,4.773,1.44c7.981,2.978,23.183,11.346,23.183,31.968c0,0-6.398-1.374-16.709-2.406
		c-29.198-2.929-89.84-3.136-125.876,38.326c-15.843,15.845-24.114,36.368-24.114,60.36c0,38.445,28.17,77.365,82.007,77.365
		c28.819,0,55.481-11.193,73.501-30.416l2.839,24.746h53.192L556.336,442.393z M497.051,359.397c0,3.721-0.811,8.205-2.27,12.585
		c-5.966,17.474-23.922,37.879-54.894,37.879c-17.919,0-37.065-9.87-37.065-37.576c0-33.538,31.167-50.543,92.636-50.543
		c0.532,0,1.063,0.003,1.594,0.005V359.397z"/>
</g>
</svg>
